<svg xmlns="http://www.w3.org/2000/svg" viewBox="23.324369032036884 161.50603559423723 531.6714003703853 251.98792881152553"> <g transform="rotate(90 145.99396440576274 287.5)"><svg xmlns="http://www.w3.org/2000/svg" xmlns:xlink="http://www.w3.org/1999/xlink" version="1.1" id="Layer_1" x="89.99999999999997" y="234.83040462627415" viewBox="53.079986572265625 42.779998779296875 200.27001953125 188.3800048828125" xml:space="preserve" height="105.33919074745171" width="111.98792881152555" preserveAspectRatio="xMinYMin" enable-background="new 0 0 306.45 273.93" style="overflow: visible;"><path id="XMLID_76_" class="st0" d="M253.35,136.97c0,0-9.61,0-9.61,0c-53.99,0-42.28-71.76-61.93-71.76   c-9.78,0-11.84,17.76-19.8,35.61c-2.53,5.67-10.61,5.79-13.16,0.13c-11.93-26.59-12.83-58.17-24.22-58.17   c-19.66,0-12.74,94.2-71.55,94.2c0,0,0,0,0.01,0H253.35z" style="fill: #76D0DB;"></path><path id="XMLID_32_" class="st1" d="M253.35,136.97c0,0-9.61,0-9.61,0c-53.99,0-42.28-29.13-61.93-29.13   c-10.62,0-12.14,8.5-21.99,16.32c-1.82,1.45-6.99,1.44-8.81,0c-14.01-11.11-14.33-25.43-26.36-25.43   c-19.66,0-12.74,38.23-71.55,38.23c0,0,0,0,0.01,0H253.35z" style="fill: #3630A4;"></path><path id="XMLID_66_" class="st2" d="M253.35,136.97c0,0-9.61,0-9.61,0c-53.99,0-42.28,71.76-61.93,71.76   c-9.78,0-11.84-17.76-19.8-35.61c-2.53-5.67-10.61-5.79-13.16-0.13c-11.93,26.59-12.83,58.17-24.22,58.17   c-19.66,0-12.74-94.2-71.55-94.2c0,0,0,0,0.01,0H253.35z" style="fill: #8E6BF9;"></path><path id="XMLID_31_" class="st1" d="M253.35,136.97c0,0-9.61,0-9.61,0c-53.99,0-42.28,29.13-61.93,29.13   c-10.62,0-12.14-8.5-21.99-16.32c-1.82-1.45-6.99-1.44-8.81,0c-14.01,11.11-14.33,25.43-26.36,25.43   c-19.66,0-12.74-38.23-71.55-38.23c0,0,0,0,0.01,0H253.35z" style="fill: #3630A4;"></path></svg></g> <g transform="rotate(0 354.02576818171906 287.4991206249428)"><svg xmlns="http://www.w3.org/2000/svg" y="271.69912138788226" viewBox="-0.2199999988079071 11.930000305175781 261.94000244140625 31.599998474121094" x="223.05576696101593" height="31.599998474121094" width="261.94000244140625" style="overflow: visible;"><g fill="#fff" fill-opacity="1" style=""><path d="M5.74 43.09L-0.22 43.09L13.80 11.93L19.50 11.93L33.56 43.09L27.51 43.09L15.44 15.00L17.76 15.00L5.74 43.09ZM26.17 35.87L6.23 35.87L7.79 31.33L24.61 31.33L26.17 35.87ZM62.33 43.53L62.33 43.53Q55.92 43.53 52.29 39.93Q48.67 36.32 48.67 29.51L48.67 29.51L48.67 11.93L54.45 11.93L54.45 29.29Q54.45 34.09 56.52 36.28Q58.59 38.46 62.38 38.46L62.38 38.46Q66.16 38.46 68.21 36.28Q70.25 34.09 70.25 29.29L70.25 29.29L70.25 11.93L75.95 11.93L75.95 29.51Q75.95 36.32 72.32 39.93Q68.70 43.53 62.33 43.53ZM101.25 43.09L95.46 43.09L95.46 11.93L108.24 11.93Q114.47 11.93 118.01 14.87Q121.55 17.80 121.55 23.01L121.55 23.01Q121.55 26.44 119.95 28.91Q118.34 31.38 115.38 32.69Q112.42 34.01 108.28 34.01L108.28 34.01L98.67 34.01L101.25 31.38L101.25 43.09ZM122.08 43.09L115.85 43.09L107.97 31.78L114.16 31.78L122.08 43.09ZM101.25 13.98L101.25 32.00L98.67 29.24L108.02 29.24Q111.84 29.24 113.78 27.60Q115.72 25.95 115.72 23.01L115.72 23.01Q115.72 20.03 113.78 18.43Q111.84 16.82 108.02 16.82L108.02 16.82L98.67 16.82L101.25 13.98ZM140.97 43.09L135.01 43.09L149.03 11.93L154.73 11.93L168.79 43.09L162.74 43.09L150.67 15.00L152.99 15.00L140.97 43.09ZM161.40 35.87L141.46 35.87L143.02 31.33L159.84 31.33L161.40 35.87ZM197.78 43.09L184.16 43.09L184.16 11.93L197.78 11.93Q202.86 11.93 206.69 13.89Q210.51 15.85 212.65 19.32Q214.79 22.79 214.79 27.51L214.79 27.51Q214.79 32.18 212.65 35.67Q210.51 39.17 206.69 41.13Q202.86 43.09 197.78 43.09L197.78 43.09ZM189.95 16.82L189.95 38.19L197.52 38.19Q200.99 38.19 203.57 36.85Q206.15 35.52 207.55 33.12Q208.96 30.71 208.96 27.51L208.96 27.51Q208.96 24.26 207.55 21.88Q206.15 19.50 203.57 18.16Q200.99 16.82 197.52 16.82L197.52 16.82L189.95 16.82ZM233.90 43.09L227.94 43.09L241.96 11.93L247.65 11.93L261.72 43.09L255.66 43.09L243.60 15.00L245.92 15.00L233.90 43.09ZM254.33 35.87L234.39 35.87L235.95 31.33L252.77 31.33L254.33 35.87Z" transform="translate(0, 0)"></path></g></svg></g></svg>