<svg xmlns="http://www.w3.org/2000/svg" viewBox="19.999999999999957 137.4543488032277 534.9877874377808 300.0913023935444"> <g transform="rotate(90 165.2933043734709 287.49999999999994)"><svg xmlns="http://www.w3.org/2000/svg" xmlns:xlink="http://www.w3.org/1999/xlink" version="1.1" id="Layer_1" x="85.24765317669868" y="212.20669562652898" viewBox="53.079986572265625 42.779998779296875 200.27001953125 188.3800048828125" xml:space="preserve" height="150.5866087469419" width="160.09130239354445" preserveAspectRatio="xMinYMin" enable-background="new 0 0 306.45 273.93" style="overflow: visible;"><path id="XMLID_76_" class="st0" d="M253.35,136.97c0,0-9.61,0-9.61,0c-53.99,0-42.28-71.76-61.93-71.76   c-9.78,0-11.84,17.76-19.8,35.61c-2.53,5.67-10.61,5.79-13.16,0.13c-11.93-26.59-12.83-58.17-24.22-58.17   c-19.66,0-12.74,94.2-71.55,94.2c0,0,0,0,0.01,0H253.35z" style="fill: #3AD0E6; fill-opacity: 1;"></path><path id="XMLID_32_" class="st1" d="M253.35,136.97c0,0-9.61,0-9.61,0c-53.99,0-42.28-29.13-61.93-29.13   c-10.62,0-12.14,8.5-21.99,16.32c-1.82,1.45-6.99,1.44-8.81,0c-14.01-11.11-14.33-25.43-26.36-25.43   c-19.66,0-12.74,38.23-71.55,38.23c0,0,0,0,0.01,0H253.35z" style="fill: #3630A4;"></path><path id="XMLID_66_" class="st2" d="M253.35,136.97c0,0-9.61,0-9.61,0c-53.99,0-42.28,71.76-61.93,71.76   c-9.78,0-11.84-17.76-19.8-35.61c-2.53-5.67-10.61-5.79-13.16-0.13c-11.93,26.59-12.83,58.17-24.22,58.17   c-19.66,0-12.74-94.2-71.55-94.2c0,0,0,0,0.01,0H253.35z" style="fill: #A866EC; fill-opacity: 1;"></path><path id="XMLID_31_" class="st1" d="M253.35,136.97c0,0-9.61,0-9.61,0c-53.99,0-42.28,29.13-61.93,29.13   c-10.62,0-12.14-8.5-21.99-16.32c-1.82-1.45-6.99-1.44-8.81,0c-14.01,11.11-14.33,25.43-26.36,25.43   c-19.66,0-12.74-38.23-71.55-38.23c0,0,0,0,0.01,0H253.35z" style="fill: #3630A4;"></path></svg></g> <g transform="rotate(0 366.48278255496814 288.27958390679737)"><svg xmlns="http://www.w3.org/2000/svg" y="246.7245797869243" viewBox="2.180000066757202 21.520000457763672 237.010009765625 83.1100082397461" x="247.97777767215564" height="83.1100082397461" width="237.010009765625" style="overflow: visible;"><g fill="#FFFFFF" fill-opacity="1" style=""><path d="M37.77 86.42L26.14 86.42L26.14 61.29L2.18 21.52L15.77 21.52L27.36 41.99Q29.18 45.21 30.62 48.26Q32.06 51.31 33.58 55.71L33.58 55.71L30.54 55.71Q32.02 51.27 33.43 48.18Q34.85 45.08 36.59 41.99L36.59 41.99L47.96 21.52L61.46 21.52L37.77 61.29L37.77 86.42ZM81.46 87.42L81.46 87.42Q76.84 87.42 73.14 85.75Q69.44 84.07 67.30 80.80Q65.17 77.54 65.17 72.74L65.17 72.74Q65.17 68.61 66.71 65.91Q68.26 63.20 70.89 61.59Q73.53 59.98 76.84 59.15Q80.15 58.33 83.72 57.98L83.72 57.98Q87.95 57.50 90.61 57.15Q93.26 56.80 94.50 56.02Q95.75 55.23 95.75 53.58L95.75 53.58L95.75 53.36Q95.75 50.96 94.79 49.29Q93.83 47.61 91.93 46.72Q90.04 45.82 87.25 45.82L87.25 45.82Q84.42 45.82 82.35 46.70Q80.28 47.57 78.97 48.96Q77.67 50.35 77.06 51.97L77.06 51.97L66.56 49.83Q68.00 45.52 71.00 42.71Q74.01 39.90 78.17 38.51Q82.33 37.11 87.21 37.11L87.21 37.11Q90.65 37.11 94.16 37.92Q97.66 38.72 100.58 40.64Q103.50 42.56 105.28 45.78Q107.07 49.00 107.07 53.88L107.07 53.88L107.07 86.42L96.22 86.42L96.22 79.71L95.79 79.71Q94.70 81.76 92.81 83.53Q90.91 85.29 88.10 86.36Q85.29 87.42 81.46 87.42ZM84.38 79.02L84.38 79.02Q87.90 79.02 90.45 77.62Q93.00 76.23 94.42 73.94Q95.83 71.66 95.83 68.95L95.83 68.95L95.83 63.20Q95.27 63.64 93.94 64.03Q92.61 64.42 90.98 64.73Q89.34 65.03 87.75 65.25Q86.16 65.47 85.07 65.60L85.07 65.60Q82.55 65.95 80.50 66.73Q78.45 67.52 77.30 68.93Q76.14 70.35 76.14 72.61L76.14 72.61Q76.14 74.70 77.21 76.12Q78.28 77.54 80.13 78.28Q81.98 79.02 84.38 79.02ZM128.63 104.63L117.31 104.63L117.31 37.72L128.37 37.72L128.37 45.78L129.11 45.78Q129.98 44.04 131.60 42.03Q133.21 40.03 135.97 38.57Q138.74 37.11 143.05 37.11L143.05 37.11Q148.72 37.11 153.25 39.99Q157.78 42.86 160.45 48.46Q163.13 54.06 163.13 62.16L163.13 62.16Q163.13 70.17 160.52 75.79Q157.91 81.41 153.35 84.35Q148.80 87.29 143.01 87.29L143.01 87.29Q138.87 87.29 136.08 85.88Q133.30 84.46 131.64 82.46Q129.98 80.45 129.11 78.71L129.11 78.71L128.63 78.71L128.63 104.63ZM139.96 77.97L139.96 77.97Q143.75 77.97 146.32 75.90Q148.89 73.83 150.20 70.24Q151.50 66.65 151.50 62.12L151.50 62.12Q151.50 57.59 150.22 54.04Q148.93 50.49 146.36 48.46Q143.79 46.43 139.96 46.43L139.96 46.43Q136.21 46.43 133.64 48.39Q131.07 50.35 129.75 53.86Q128.42 57.37 128.42 62.12L128.42 62.12Q128.42 66.86 129.75 70.44Q131.07 74.01 133.67 75.99Q136.26 77.97 139.96 77.97ZM182.52 57.89L182.52 57.89L182.52 86.42L171.19 86.42L171.19 37.72L181.91 37.72L182.08 49.74L181.17 49.74Q183.22 43.43 187.18 40.27Q191.14 37.11 197.11 37.11L197.11 37.11Q202.12 37.11 205.87 39.25Q209.61 41.38 211.68 45.48Q213.75 49.57 213.75 55.45L213.75 55.45L213.75 86.42L202.43 86.42L202.43 57.19Q202.43 52.31 199.90 49.53Q197.37 46.74 192.93 46.74L192.93 46.74Q189.92 46.74 187.57 48.05Q185.22 49.35 183.87 51.86Q182.52 54.36 182.52 57.89ZM232.18 87.16L232.18 87.16Q229.26 87.16 227.23 85.16Q225.21 83.15 225.21 80.19L225.21 80.19Q225.21 77.27 227.23 75.27Q229.26 73.27 232.18 73.27L232.18 73.27Q235.14 73.27 237.17 75.27Q239.19 77.27 239.19 80.19L239.19 80.19Q239.19 83.15 237.17 85.16Q235.14 87.16 232.18 87.16Z" transform="translate(0, 0)"></path></g></svg></g></svg>